<?xml version="1.0" standalone="no"?>
<!DOCTYPE svg PUBLIC "-//W3C//DTD SVG 20010904//EN"
 "http://www.w3.org/TR/2001/REC-SVG-20010904/DTD/svg10.dtd">
<svg version="1.0" xmlns="http://www.w3.org/2000/svg"
 width="500.000000pt" height="500.000000pt" viewBox="0 0 500.000000 500.000000"
 preserveAspectRatio="xMidYMid meet">

<g transform="translate(0.000000,500.000000) scale(0.100000,-0.100000)"
fill="#f5f5f5" stroke="none">
<path d="M1435 4300 c-4 -6 -7 -60 -6 -120 0 -83 5 -122 22 -170 11 -34 18
-64 15 -67 -3 -4 -6 -1 -6 5 0 7 -5 12 -12 12 -6 0 -30 9 -52 19 -88 41 -157
54 -298 55 -97 1 -141 -3 -149 -11 -7 -7 -20 -13 -28 -13 -13 0 -172 -74 -196
-92 -41 -30 -120 -104 -173 -163 -35 -39 -70 -77 -78 -86 -8 -9 -14 -21 -14
-27 0 -7 -4 -12 -9 -12 -5 0 -12 -12 -16 -27 -3 -15 -10 -30 -13 -33 -12 -9
-51 -93 -58 -125 -4 -16 -12 -36 -18 -44 -16 -21 -15 -346 2 -362 6 -7 12 -23
12 -36 0 -12 6 -42 14 -65 60 -189 72 -223 78 -226 5 -2 8 -10 8 -18 0 -16 29
-87 55 -137 8 -16 15 -33 15 -39 0 -5 -37 -47 -82 -92 -99 -97 -248 -313 -248
-359 0 -7 -7 -24 -14 -39 -8 -16 -18 -49 -22 -75 -3 -27 -12 -54 -18 -62 -7
-9 -11 -69 -11 -165 0 -119 3 -159 16 -186 9 -19 18 -39 20 -45 9 -24 72 -115
79 -115 5 0 12 -9 15 -20 3 -11 11 -20 16 -20 5 0 22 -12 37 -28 40 -40 127
-100 157 -108 14 -3 28 -10 31 -15 3 -5 15 -9 27 -9 12 -1 40 -9 62 -20 35
-17 63 -19 207 -20 119 0 180 4 210 14 24 8 60 18 81 21 20 4 37 11 37 15 0 4
16 11 35 14 19 4 35 11 35 15 0 5 14 14 30 21 17 7 30 16 30 21 0 5 7 9 15 9
9 0 18 7 21 15 4 8 12 15 19 15 6 0 20 9 30 20 10 11 23 20 28 20 19 0 85 78
112 132 14 29 30 60 35 68 49 82 71 170 77 306 5 117 3 138 -17 205 -12 41
-26 79 -30 84 -4 6 -11 21 -15 35 -7 24 -105 195 -188 330 -61 99 -177 249
-254 327 -105 108 -227 342 -239 461 -8 77 7 127 68 218 47 71 56 79 127 113
65 31 88 36 161 39 125 5 164 -14 210 -103 19 -36 40 -71 46 -76 6 -4 87 -15
180 -24 108 -9 201 -24 259 -40 50 -14 113 -30 142 -36 58 -13 53 -15 148 69
47 42 48 42 29 63 -10 11 -59 46 -109 76 -154 95 -171 109 -205 170 -18 32
-49 73 -69 92 -168 156 -224 219 -314 354 -71 105 -80 116 -92 97z m-784
-1951 c61 -112 149 -299 149 -317 0 -10 4 -22 10 -28 5 -5 15 -37 20 -69 6
-33 15 -71 21 -84 10 -24 9 -31 -22 -162 -10 -39 -53 -91 -106 -127 -60 -42
-178 -23 -239 38 -33 33 -42 46 -66 96 -21 44 -23 63 -23 184 0 114 4 147 24
210 13 41 27 77 31 80 4 3 11 20 15 38 3 17 10 32 14 32 4 0 13 12 20 28 20
45 105 151 114 143 5 -5 21 -32 38 -62z"/>
<path d="M3055 3360 c-99 -20 -144 -35 -205 -67 -36 -20 -72 -42 -81 -49 -8
-8 -20 -14 -26 -14 -6 0 -13 -3 -15 -7 -1 -5 -22 -21 -45 -37 -58 -39 -140
-122 -155 -157 -11 -25 -17 -29 -38 -24 -14 4 -27 10 -30 14 -15 22 -223 77
-325 85 -120 10 -443 8 -500 -3 -213 -41 -444 -122 -515 -179 -24 -20 -24 -21
-7 -40 15 -17 24 -19 50 -11 17 5 35 13 41 19 21 21 26 8 26 -59 0 -53 4 -74
17 -87 17 -17 72 -88 103 -134 8 -12 20 -28 26 -34 5 -6 13 -18 17 -26 4 -8
17 -31 29 -51 63 -101 109 -183 114 -205 3 -13 10 -24 14 -24 5 0 11 -13 15
-30 4 -16 11 -30 15 -30 5 0 12 -16 16 -35 3 -19 10 -35 14 -35 4 0 14 -24 20
-52 12 -51 66 -148 82 -148 5 0 8 -7 8 -15 0 -13 28 -15 191 -15 194 0 195 0
167 35 -5 6 -27 35 -51 65 -23 30 -45 57 -49 58 -5 2 -8 8 -8 14 0 6 -10 23
-22 38 -13 15 -30 37 -38 50 -8 12 -19 28 -25 34 -27 30 -65 86 -65 94 0 6 -5
12 -12 14 -6 2 32 48 86 101 54 53 94 97 89 97 -4 1 -47 1 -96 1 l-87 1 -48
-40 c-26 -22 -76 -70 -112 -106 -35 -36 -68 -66 -72 -66 -4 0 -8 142 -8 315
l0 315 -132 0 -133 1 45 18 c74 30 113 42 160 52 25 6 52 14 61 19 15 8 235
32 299 33 51 0 227 -25 275 -40 68 -21 159 -56 165 -65 3 -3 17 -9 32 -13 15
-4 29 -13 32 -21 3 -8 11 -14 18 -14 7 0 39 -27 72 -60 32 -33 62 -60 66 -60
4 0 10 12 13 28 6 29 39 104 59 137 32 48 139 143 189 167 100 47 164 61 251
55 44 -3 85 -10 91 -16 6 -6 19 -11 29 -11 53 0 248 -147 248 -187 0 -7 4 -13
10 -13 5 0 19 -22 32 -50 13 -27 26 -50 30 -50 4 0 18 10 32 23 13 12 37 29
53 37 15 8 30 17 33 20 11 12 82 50 93 50 7 0 24 6 38 14 15 7 61 17 103 21
42 3 76 11 76 17 0 20 235 -10 297 -38 17 -8 38 -14 46 -14 8 0 20 -7 27 -15
6 -8 22 -17 33 -21 37 -12 110 -65 165 -122 28 -29 52 -56 52 -60 0 -3 6 -13
14 -21 29 -32 86 -159 97 -217 23 -114 11 -268 -27 -351 -7 -17 -14 -35 -14
-41 0 -5 -7 -15 -15 -22 -9 -7 -15 -8 -15 -2 0 33 -219 212 -259 212 -6 0 -11
4 -11 9 0 5 -15 13 -32 16 -18 4 -42 12 -53 18 -90 50 -407 72 -501 36 -29
-12 -34 -10 -56 14 -14 15 -29 27 -33 27 -4 0 -19 8 -33 18 -51 35 -126 52
-231 52 -95 0 -129 -11 -78 -25 31 -9 121 -48 127 -57 3 -3 17 -9 32 -13 15
-4 29 -13 32 -21 3 -8 11 -14 18 -14 17 0 148 -131 148 -148 0 -6 4 -12 9 -12
4 0 19 -25 32 -55 26 -61 41 -67 94 -39 134 71 376 70 514 -2 14 -8 32 -14 39
-14 6 0 12 -4 12 -9 0 -5 11 -11 23 -15 24 -6 121 -94 144 -131 23 -37 52 -99
75 -165 20 -57 22 -84 22 -225 0 -137 -3 -171 -23 -235 -12 -41 -27 -83 -32
-93 -16 -30 -1 -33 23 -5 27 30 44 54 60 88 7 14 15 27 18 30 5 5 29 68 62
165 27 80 29 217 4 301 l-18 61 35 46 c31 41 45 67 91 169 9 20 16 45 16 55 0
10 4 23 9 28 5 6 16 60 24 120 22 179 -6 343 -87 498 -38 74 -95 157 -108 157
-4 0 -8 6 -8 13 0 7 -19 29 -41 48 -23 19 -48 40 -56 48 -21 21 -83 61 -93 61
-4 0 -10 3 -12 8 -9 21 -188 92 -233 92 -13 0 -26 4 -29 9 -10 15 -186 24
-256 12 -134 -21 -268 -61 -278 -83 -7 -15 -22 -7 -64 32 -23 23 -63 54 -88
70 -25 16 -50 34 -56 39 -6 4 -21 12 -35 16 -13 4 -29 11 -35 16 -11 9 -51 19
-154 39 -54 11 -121 10 -175 0z"/>
<path d="M2819 2512 l-77 -3 -28 -77 c-15 -42 -34 -88 -41 -102 -7 -14 -13
-33 -13 -42 0 -9 -5 -20 -10 -23 -6 -3 -15 -26 -21 -51 -6 -24 -15 -44 -20
-44 -5 0 -9 -8 -10 -17 0 -14 -2 -15 -6 -3 -2 8 -11 29 -19 47 -8 17 -14 38
-14 46 0 9 -4 18 -9 21 -5 3 -12 18 -16 33 -3 15 -15 46 -26 70 -10 23 -19 49
-19 57 0 9 -4 16 -10 16 -5 0 -12 16 -16 35 l-6 35 -179 0 -178 0 13 -27 c26
-53 65 -143 101 -233 14 -36 33 -79 41 -97 8 -17 14 -36 14 -42 0 -6 5 -11 10
-11 6 0 10 -7 10 -16 0 -15 15 -52 58 -141 15 -32 16 -33 84 -33 59 0 68 -2
68 -18 0 -37 -101 -147 -146 -158 -13 -3 -24 -10 -24 -15 0 -5 -9 -9 -20 -9
-24 0 -25 -9 -3 -60 20 -45 33 -48 88 -20 22 11 45 20 52 20 7 0 13 5 13 10 0
6 6 10 13 10 14 0 106 94 126 130 40 71 60 113 66 140 4 16 11 30 16 30 5 0 9
7 9 16 0 16 6 31 59 145 11 25 21 54 21 63 0 9 5 16 10 16 6 0 10 5 10 11 0 6
6 25 14 42 8 18 27 61 41 97 14 36 33 80 41 98 24 52 18 57 -67 54z"/>
<path d="M2950 1390 l0 -510 160 0 160 0 0 510 0 510 -160 0 -160 0 0 -510z"/>
<path d="M1848 1563 c-17 -27 -37 -53 -43 -60 -21 -25 -30 -39 -44 -65 -8 -16
-18 -28 -23 -28 -4 0 -8 -6 -8 -13 0 -7 -8 -20 -17 -29 -20 -18 -24 -23 -68
-83 -17 -21 -37 -47 -45 -56 -16 -17 -53 -63 -92 -114 -35 -46 -37 -48 -63
-78 -14 -15 -25 -23 -25 -17 0 6 -5 16 -10 23 -39 46 -50 61 -50 69 0 17 -52
91 -59 82 -6 -9 -36 -28 -84 -52 -35 -17 -32 -35 18 -121 19 -33 35 -64 35
-70 0 -6 4 -11 9 -11 5 0 12 -12 16 -27 3 -15 10 -30 13 -33 4 -3 23 -36 43
-75 l35 -70 100 -3 99 -3 29 58 c16 32 32 60 35 63 3 3 14 21 25 40 10 19 39
73 64 120 25 47 50 95 56 107 6 13 14 23 18 23 3 0 9 13 13 30 4 16 10 32 15
35 11 7 160 308 160 323 0 6 4 12 10 14 5 2 14 18 19 36 l10 32 -79 0 -79 0
-33 -47z"/>
<path d="M2250 1503 c-24 -2 -49 -8 -55 -13 -5 -4 -29 -11 -52 -15 -51 -8 -58
-23 -30 -64 18 -26 27 -31 47 -25 14 3 63 8 110 11 85 5 85 5 123 -29 29 -25
39 -44 46 -80 9 -52 2 -59 -35 -34 -11 8 -55 19 -98 25 -179 25 -315 -35 -351
-154 -11 -38 -11 -52 2 -94 30 -104 115 -151 270 -151 51 0 95 5 98 10 3 6 14
10 23 10 10 0 34 9 55 20 46 25 57 25 57 2 0 -37 19 -42 167 -42 l143 0 6 25
c3 14 4 107 2 208 -3 153 -7 188 -23 221 -21 44 -90 116 -110 116 -7 0 -15 3
-17 8 -1 4 -27 15 -57 25 -55 19 -228 30 -321 20z m175 -347 c17 -11 19 -23
16 -65 -3 -48 -6 -54 -36 -68 -29 -14 -35 -14 -68 2 -54 25 -61 87 -13 127 25
21 74 23 101 4z"/>
<path d="M3728 1503 c-21 -2 -38 -8 -38 -14 0 -5 -9 -9 -21 -9 -31 0 -120 -46
-159 -82 -66 -62 -84 -103 -84 -199 -1 -72 3 -93 24 -135 41 -80 106 -128 225
-165 45 -14 91 -19 187 -19 70 0 129 4 132 9 3 5 26 12 51 15 25 4 45 11 45
16 0 5 6 10 14 12 10 2 8 12 -11 41 -22 35 -27 38 -56 32 -18 -4 -36 -11 -42
-16 -15 -15 -89 -10 -126 8 -42 20 -71 49 -87 87 -19 43 -4 52 100 59 51 3
116 11 143 16 28 6 85 13 129 17 l79 6 -6 56 c-3 30 -10 58 -15 61 -5 3 -12
15 -16 27 -8 25 -93 112 -118 120 -10 3 -18 10 -18 15 0 5 -8 9 -17 9 -10 0
-31 7 -48 16 -31 16 -193 27 -267 17z m177 -123 c12 -14 20 -41 23 -80 l4 -60
-39 0 c-22 0 -62 -3 -88 -7 l-48 -6 6 54 c4 30 11 55 17 57 5 2 10 9 10 14 0
43 83 63 115 28z"/>
</g>
</svg>
